<?xml version="1.0" standalone="no"?>
<!DOCTYPE svg PUBLIC "-//W3C//DTD SVG 20010904//EN"
 "http://www.w3.org/TR/2001/REC-SVG-20010904/DTD/svg10.dtd">
<svg version="1.0" xmlns="http://www.w3.org/2000/svg"
 width="1024.000000pt" height="1024.000000pt" viewBox="0 0 1024.000000 1024.000000"
 preserveAspectRatio="xMidYMid meet">

<g transform="translate(0.000000,1024.000000) scale(0.100000,-0.100000)"
fill="#000000" stroke="none">
<path d="M3654 9544 c-14 -32 -47 -116 -74 -188 -26 -72 -92 -243 -145 -381
-54 -137 -100 -271 -103 -298 -4 -37 1 -60 22 -106 53 -118 28 -151 -114 -151
-135 0 -195 -42 -246 -172 -52 -134 -41 -126 -364 -256 -527 -214 -623 -252
-729 -293 -62 -24 -116 -49 -118 -56 -3 -6 27 -85 65 -175 38 -90 73 -174 77
-188 4 -14 43 -107 86 -208 44 -100 79 -185 79 -188 0 -7 129 -314 206 -492
61 -139 62 -136 -18 -199 -64 -50 -93 -108 -85 -173 8 -66 30 -106 91 -163 50
-46 50 -48 31 -63 -11 -9 -47 -29 -80 -46 -93 -47 -130 -81 -153 -140 -25 -65
-91 -241 -138 -368 -19 -52 -62 -165 -95 -250 -33 -85 -61 -161 -62 -169 -2
-13 27 -26 248 -111 55 -21 141 -54 190 -74 421 -163 563 -212 665 -227 103
-15 136 -35 147 -91 7 -34 13 -44 31 -46 26 -4 27 4 7 78 -21 79 -53 105 -141
113 -38 4 -95 13 -126 22 -67 17 -816 300 -905 342 l-32 15 34 96 c18 54 54
149 80 212 26 63 62 160 82 215 51 148 107 261 134 276 74 39 192 124 201 145
16 34 -4 66 -65 111 -54 40 -86 96 -87 152 0 27 9 42 43 75 24 22 66 62 94 88
54 51 56 55 138 268 147 380 241 624 275 715 21 55 59 154 85 220 25 66 71
187 101 270 30 82 71 183 90 223 42 91 44 142 9 247 l-24 76 36 50 c20 28 47
55 60 60 13 5 64 9 112 9 75 0 93 3 122 23 44 29 59 60 59 123 0 40 -6 60 -31
97 -26 40 -29 50 -21 79 8 28 68 185 157 413 13 33 48 125 78 205 87 231 86
229 116 220 14 -4 190 -74 391 -155 201 -81 377 -150 392 -155 16 -5 55 -3
100 6 40 8 78 14 83 14 6 0 33 -50 60 -111 30 -66 61 -121 78 -135 33 -28 100
-39 161 -26 42 9 55 6 163 -35 182 -68 909 -356 1418 -561 446 -179 463 -185
554 -193 51 -4 98 -12 102 -16 5 -5 29 -52 52 -104 60 -132 61 -133 113 -168
70 -46 103 -43 168 19 l53 50 64 -24 c35 -13 120 -46 189 -74 69 -27 202 -80
295 -116 94 -37 184 -73 202 -81 l31 -14 -52 -133 c-29 -73 -77 -194 -106
-268 -29 -74 -91 -232 -138 -350 -145 -368 -162 -413 -162 -440 0 -14 14 -54
30 -89 17 -35 29 -65 28 -65 -2 -1 -35 -12 -75 -24 -73 -23 -90 -40 -73 -72 6
-11 28 -68 50 -127 44 -123 102 -274 184 -480 31 -78 56 -144 56 -148 0 -4 35
-95 78 -203 105 -264 150 -382 157 -413 7 -30 12 -28 -392 -189 -263 -104
-265 -106 -271 -208 l-4 -62 -80 0 c-62 0 -121 -10 -266 -47 -227 -58 -204
-68 69 -28 149 21 190 24 231 16 70 -15 105 -14 112 5 3 9 6 46 6 83 0 54 4
71 19 85 11 10 160 73 332 142 173 68 320 130 327 138 13 13 -22 112 -248 686
-111 282 -279 731 -280 747 0 1 34 9 75 18 107 24 108 27 47 143 l-50 98 38
99 c55 143 123 318 158 405 121 297 282 712 282 725 0 1 -51 21 -112 45 -62
24 -194 76 -293 116 -228 92 -464 184 -474 184 -4 0 -23 -16 -42 -36 -18 -20
-46 -44 -61 -55 -26 -19 -27 -19 -61 1 -25 15 -42 37 -62 83 -52 119 -75 164
-94 181 -12 11 -54 23 -108 32 -48 7 -89 13 -90 14 -6 1 -46 87 -76 166 -19
49 -51 127 -72 174 -20 47 -54 128 -75 180 -22 52 -60 145 -85 205 -26 61 -60
142 -75 180 -32 81 -181 429 -185 433 -5 5 -162 -56 -985 -383 -457 -181 -536
-205 -612 -185 -20 6 -40 16 -45 23 -6 6 -34 65 -63 129 -28 65 -58 122 -66
129 -10 8 -38 7 -112 -5 -63 -10 -110 -12 -129 -7 -16 5 -114 42 -219 84 -465
185 -599 237 -612 237 -7 0 -24 -25 -38 -56z m2856 -74 c6 -11 28 -62 49 -113
165 -402 332 -804 381 -917 32 -74 61 -145 65 -157 l6 -22 -48 18 c-26 11 -75
29 -108 42 -33 12 -134 52 -225 89 -91 37 -300 120 -465 185 -165 65 -379 149
-475 187 -151 60 -359 140 -480 184 l-35 12 25 10 c218 84 314 122 465 182 99
40 212 84 250 99 39 15 93 37 120 49 66 27 372 147 410 160 44 15 53 14 65 -8z
m-3471 -1368 c12 -46 10 -52 -45 -192 -31 -80 -101 -264 -156 -410 -55 -146
-114 -299 -130 -340 -16 -41 -47 -122 -68 -180 -22 -58 -58 -152 -80 -210 -23
-58 -58 -154 -80 -215 -21 -60 -48 -136 -61 -168 l-22 -58 -42 98 c-38 87
-114 269 -292 698 -102 246 -193 473 -193 482 0 5 84 42 188 83 740 293 849
340 903 388 27 24 49 50 49 58 0 32 19 11 29 -34z"/>
<path d="M6145 8102 c-165 -43 -314 -144 -420 -286 -119 -159 -164 -291 -274
-796 -23 -102 -54 -220 -70 -263 -84 -225 -216 -371 -536 -597 -50 -36 -103
-71 -116 -77 -174 -89 -329 -176 -394 -221 -247 -171 -407 -327 -471 -457 -19
-38 -55 -133 -80 -210 -115 -351 -134 -389 -264 -528 -33 -36 -101 -98 -150
-138 -93 -75 -121 -115 -134 -191 l-7 -38 118 0 c101 0 123 3 151 20 18 11 46
22 61 24 15 2 58 20 97 42 75 42 190 121 162 111 -10 -4 -18 -3 -18 1 0 17
238 122 308 137 40 8 82 20 92 25 23 13 77 13 84 1 4 -5 2 -11 -4 -13 -6 -2
10 -27 36 -56 33 -38 65 -61 118 -86 44 -20 81 -45 94 -63 22 -32 38 -79 33
-103 -1 -8 5 -4 15 9 14 20 15 29 4 65 -6 22 -23 61 -37 86 -30 53 -21 45 30
-26 41 -57 45 -78 21 -112 -18 -26 -8 -30 13 -4 39 49 44 69 26 104 -34 69
-34 68 -17 75 10 4 22 -1 29 -11 7 -9 15 -14 18 -9 6 11 2 51 -6 59 -4 4 -7
20 -7 35 0 62 -52 171 -71 152 -5 -5 -3 -39 3 -77 9 -53 16 -70 30 -74 15 -4
16 -7 6 -20 -10 -12 -10 -16 0 -19 19 -7 14 -23 -8 -23 -13 0 -24 10 -30 25
-5 14 -14 25 -19 25 -6 0 -8 7 -5 15 5 11 -1 15 -25 15 -24 0 -31 -4 -31 -20
0 -13 -5 -18 -15 -14 -9 4 -15 0 -15 -10 0 -9 -6 -16 -14 -16 -8 0 -21 -3 -30
-6 -16 -6 -46 42 -39 64 3 6 -2 12 -11 12 -9 0 -16 -7 -16 -16 0 -27 -19 -5
-25 30 -6 29 -2 39 34 77 23 25 35 46 29 48 -7 2 -27 -13 -44 -33 -29 -34 -33
-36 -42 -19 -5 10 -9 44 -9 76 1 54 3 59 31 72 45 22 91 61 79 68 -5 3 -26 -5
-46 -19 -48 -32 -48 -14 -1 24 48 40 69 44 91 19 17 -19 17 -20 1 -14 -10 4
-18 2 -18 -3 0 -6 7 -10 16 -10 12 0 15 -7 12 -25 -4 -17 -1 -25 8 -25 8 0 14
-9 14 -20 0 -22 7 -25 29 -11 13 8 13 12 0 27 -15 18 -38 95 -39 132 0 30 25
28 46 -3 l16 -24 49 64 c27 36 52 80 56 97 8 44 19 56 64 69 57 18 74 41 74
106 0 31 -5 58 -11 60 -5 2 -30 -13 -53 -34 -30 -25 -40 -30 -33 -16 10 18 8
22 -16 28 -15 3 -35 13 -44 22 -12 11 -27 13 -54 9 -38 -8 -49 -18 -124 -112
-25 -31 -61 -72 -81 -92 -20 -21 -44 -51 -53 -69 -22 -44 -51 -59 -82 -42 -18
9 -30 10 -49 1 -34 -15 -34 -15 -28 7 3 11 -1 36 -7 57 l-13 37 -18 -24 -19
-24 -24 30 c-23 29 -25 29 -44 12 -30 -27 -36 -4 -13 49 18 40 19 48 6 60 -12
12 -23 5 -83 -53 -59 -58 -68 -71 -58 -86 9 -14 4 -23 -32 -56 -40 -37 -43
-43 -40 -85 2 -25 5 -46 7 -46 2 0 16 11 33 25 38 32 66 32 74 0 8 -31 15 -31
40 -4 15 18 71 49 87 49 2 0 2 -23 -1 -52 l-5 -51 94 6 c91 6 93 5 69 -11 -13
-9 -68 -57 -122 -106 -80 -73 -98 -94 -103 -125 -6 -36 -9 -39 -108 -84 -102
-46 -316 -121 -324 -113 -8 7 214 186 231 186 7 0 22 17 34 39 24 42 27 56 12
46 -5 -3 -10 1 -10 10 0 14 -2 14 -25 -1 -26 -17 -34 -8 -12 16 10 12 9 12 -5
1 -10 -7 -18 -24 -18 -36 0 -12 -6 -28 -14 -35 -8 -6 -12 -18 -10 -25 3 -8
-12 -33 -33 -55 -28 -31 -50 -44 -81 -50 -23 -4 -42 -5 -42 -3 0 2 15 18 33
34 l32 31 -39 -23 c-44 -26 -44 -25 19 66 64 92 136 247 139 300 3 36 84 291
101 320 7 11 21 43 31 70 13 36 40 72 94 126 41 41 99 101 129 133 50 54 167
154 237 202 66 47 274 152 291 148 22 -5 118 46 118 63 0 14 119 93 141 93 21
0 108 45 123 64 8 9 19 16 25 16 7 0 27 11 45 24 l32 24 -36 -3 c-32 -3 -35
-2 -23 12 7 9 33 30 58 47 60 41 147 136 196 213 23 37 46 63 56 63 26 0 89
92 70 104 -4 2 -18 -14 -32 -35 -34 -55 -45 -49 -16 9 13 26 31 72 40 102 18
66 60 281 76 400 25 174 99 425 153 519 40 69 95 136 139 169 23 18 61 46 83
63 22 17 69 47 105 67 l65 37 150 0 c148 0 151 0 210 -31 49 -25 69 -43 108
-100 26 -37 59 -80 72 -94 l25 -26 -64 -13 c-72 -14 -89 -11 -158 31 -43 27
-54 29 -95 23 -89 -13 -235 -98 -291 -169 -7 -9 -25 -16 -41 -16 -18 0 -37
-10 -54 -30 -17 -18 -37 -30 -52 -30 -27 0 -40 -11 -97 -81 -36 -44 -77 -122
-78 -146 0 -26 30 -12 62 28 46 58 59 70 189 178 63 53 110 60 80 12 -6 -9 -5
-21 2 -32 14 -23 -11 -52 -68 -81 -22 -12 -51 -29 -66 -40 -14 -11 -43 -21
-64 -22 -29 -3 -45 -11 -64 -35 -14 -17 -30 -31 -35 -31 -15 0 -131 -123 -154
-163 -21 -37 -30 -107 -14 -107 9 0 32 59 32 82 0 9 23 35 50 58 56 47 63 44
24 -7 -23 -31 -25 -38 -14 -59 17 -31 28 -30 35 4 7 36 49 115 63 120 8 2 12
-10 12 -35 l1 -38 19 24 c11 13 20 32 20 43 0 10 11 30 25 43 29 30 65 33 65
7 0 -10 5 -23 12 -30 8 -8 5 -14 -15 -21 -15 -6 -46 -30 -70 -53 -24 -24 -58
-52 -77 -63 -18 -11 -36 -26 -38 -34 -9 -27 52 -1 98 43 25 24 56 50 69 59 23
15 26 15 46 -7 12 -13 21 -34 21 -47 -1 -21 5 -25 51 -34 71 -14 87 -37 78
-113 -5 -48 -3 -62 13 -82 10 -14 25 -42 31 -62 13 -38 28 -49 35 -25 15 50
17 52 26 36 5 -8 8 -48 6 -88 -3 -83 -18 -104 -67 -94 -33 6 -89 -13 -89 -32
0 -6 -18 -37 -39 -67 -27 -39 -36 -59 -28 -67 11 -11 32 20 63 92 34 79 74 28
74 -95 0 -31 -4 -60 -10 -63 -5 -3 -10 -14 -10 -23 0 -13 4 -11 16 6 9 13 22
21 29 18 20 -7 25 3 14 31 -7 20 -6 30 8 45 16 18 16 21 -1 52 -19 36 -19 77
1 83 7 3 22 -15 33 -38 26 -51 39 -39 41 36 2 103 30 133 56 60 17 -49 5 -118
-32 -175 -5 -8 -10 -31 -11 -50 -1 -19 -5 -50 -9 -67 -8 -38 10 -46 21 -10 12
40 22 46 54 34 18 -7 34 -23 42 -42 l12 -30 3 27 c2 15 -3 40 -11 57 -18 34
-21 61 -6 61 12 0 34 -43 51 -100 7 -25 21 -56 31 -69 10 -13 18 -32 18 -42 0
-11 10 -47 22 -81 19 -53 23 -84 23 -193 0 -197 -7 -369 -16 -380 -4 -5 -8
-13 -9 -17 -8 -36 -13 -48 -19 -48 -3 0 -7 -14 -8 -30 -4 -50 -30 -117 -92
-240 -16 -30 -27 -57 -25 -59 5 -6 53 53 54 66 0 6 3 13 8 15 16 7 76 159 104
263 19 75 32 157 40 255 10 142 10 149 -25 390 -46 312 -45 299 -62 645 -10
200 23 306 135 428 27 30 61 78 76 108 15 30 38 66 52 82 22 23 34 27 81 27
31 0 85 -5 120 -10 35 -6 66 -9 69 -6 7 8 -42 70 -114 146 -34 36 -91 109
-127 163 -71 107 -157 185 -257 235 -47 23 -69 27 -155 29 -70 2 -121 -3 -170
-15z m165 -2 c-8 -5 -40 -9 -70 -8 -54 1 -54 1 -15 8 64 11 103 11 85 0z m292
-177 c47 -50 86 -103 75 -103 -2 0 -36 36 -76 80 -83 91 -82 110 1 23z m43 17
c10 -11 16 -20 13 -20 -3 0 -13 9 -23 20 -10 11 -16 20 -13 20 3 0 13 -9 23
-20z m91 -123 c20 -34 50 -77 67 -94 17 -18 26 -33 21 -33 -19 0 -71 65 -106
132 -44 83 -32 80 18 -5z m-519 -79 c-1 -18 2 -44 7 -57 8 -23 7 -24 -30 -18
-54 7 -96 25 -89 37 5 8 103 69 112 70 1 0 1 -15 0 -32z m167 7 c40 -37 29
-75 -22 -75 -21 0 -23 4 -18 24 3 14 2 27 -3 30 -10 7 -3 46 9 46 4 0 19 -11
34 -25z m101 -95 c3 -5 0 -10 -7 -10 -8 0 -23 -7 -34 -15 -18 -15 -18 -16 10
-39 37 -31 37 -64 -1 -113 -38 -48 -56 -83 -44 -83 11 0 56 51 91 103 26 38
40 43 99 31 l31 -7 -29 -51 c-16 -28 -67 -103 -115 -166 -47 -63 -88 -127 -92
-142 -7 -33 -15 -35 -32 -7 -11 17 -21 20 -55 17 -56 -4 -160 36 -192 74 -14
17 -25 42 -25 59 0 17 -7 44 -16 60 -19 38 -14 54 28 75 48 24 126 103 138
140 10 30 13 32 80 36 42 3 83 13 107 26 45 24 50 25 58 12z m-1485 -1431
c-31 -26 -83 -61 -70 -46 11 12 95 77 100 77 3 0 -11 -14 -30 -31z m-387
-1026 c-12 -81 -43 -109 -109 -101 -29 3 -28 4 41 71 38 37 70 67 72 67 1 0
-1 -17 -4 -37z m-105 -650 c7 -21 7 -33 1 -33 -12 0 -31 49 -23 62 8 12 9 10
22 -29z m-1028 -21 c0 -5 -15 -19 -32 -32 l-33 -23 29 31 c31 34 36 37 36 24z
m300 -37 c-6 -8 -27 -20 -45 -27 -19 -6 -31 -16 -28 -21 3 -6 1 -7 -5 -3 -5 3
-12 2 -14 -3 -5 -13 -79 -61 -95 -61 -23 0 -5 19 45 45 26 14 70 39 97 55 58
34 62 35 45 15z"/>
<path d="M6095 8023 c-11 -2 -42 -20 -70 -37 -27 -18 -72 -47 -100 -64 -35
-22 -60 -49 -85 -90 -19 -32 -62 -99 -94 -148 -33 -49 -68 -108 -78 -132 -21
-47 -52 -181 -44 -190 10 -9 45 43 61 90 29 85 130 202 255 297 90 69 133 92
224 126 86 31 124 32 186 0 60 -30 93 -32 120 -5 16 16 18 25 10 45 -19 51
-31 65 -73 87 -36 18 -61 22 -167 24 -69 2 -134 0 -145 -3z"/>
<path d="M5798 7094 c-26 -18 -53 -34 -60 -37 -7 -2 -10 -7 -7 -11 8 -8 95 23
109 39 7 8 10 20 8 27 -2 9 -17 4 -50 -18z"/>
<path d="M5616 7082 c-20 -39 -49 -142 -42 -150 3 -3 20 8 37 24 l31 29 -17
-35 c-10 -19 -29 -49 -41 -66 -33 -42 -30 -49 10 -25 18 12 44 20 56 19 35 -4
46 23 30 71 -7 23 -19 41 -27 41 -8 0 -11 5 -7 11 15 25 23 84 12 96 -16 19
-26 16 -42 -15z"/>
<path d="M5936 7074 c-21 -20 -20 -44 0 -44 19 0 74 38 74 51 0 15 -57 10 -74
-7z"/>
<path d="M5833 7008 c-6 -7 -13 -30 -17 -50 -5 -28 -15 -42 -37 -53 -16 -9
-35 -27 -41 -41 -7 -16 -25 -28 -49 -34 -36 -10 -59 -33 -59 -59 0 -6 16 1 36
14 49 34 84 33 84 0 0 -14 5 -25 11 -25 8 0 10 17 5 55 l-6 55 35 14 c29 13
35 20 35 45 0 27 3 31 29 31 16 0 31 6 35 15 3 8 0 15 -6 15 -6 0 -19 7 -28
15 -14 12 -19 13 -27 3z"/>
<path d="M5939 6971 c-20 -16 -21 -22 -13 -52 5 -19 17 -35 26 -37 13 -2 15 7
14 52 0 31 -2 56 -2 56 -1 0 -12 -8 -25 -19z"/>
<path d="M5727 6963 c-4 -3 -7 -11 -7 -17 0 -6 5 -5 12 2 6 6 9 14 7 17 -3 3
-9 2 -12 -2z"/>
<path d="M5869 6861 c-13 -11 -21 -22 -17 -26 8 -8 68 22 68 35 0 16 -26 11
-51 -9z"/>
<path d="M6013 6844 c-3 -8 0 -27 6 -40 6 -14 9 -30 5 -35 -3 -5 -2 -19 1 -30
7 -21 8 -21 31 7 l23 29 7 -33 c5 -26 11 -32 27 -30 40 6 27 41 -29 74 -16 10
-17 15 -6 33 19 33 15 41 -23 41 -23 0 -38 -6 -42 -16z"/>
<path d="M5930 6798 c0 -7 -3 -23 -6 -35 -5 -17 -2 -23 10 -23 17 0 32 42 21
59 -9 15 -25 14 -25 -1z"/>
<path d="M5552 6778 c-13 -17 -52 -108 -52 -122 0 -15 48 58 66 100 14 33 6
46 -14 22z"/>
<path d="M5840 6749 c-7 -11 -9 -23 -7 -26 8 -7 47 21 47 34 0 21 -28 15 -40
-8z"/>
<path d="M5900 6692 c0 -35 -6 -45 -47 -82 -46 -40 -47 -41 -18 -35 50 11 85
52 85 101 0 24 -4 46 -10 49 -6 4 -10 -10 -10 -33z"/>
<path d="M5655 6656 c-10 -14 -15 -39 -13 -58 l4 -33 19 38 c13 26 28 40 47
44 14 3 29 11 32 19 4 11 -5 14 -34 14 -31 0 -43 -5 -55 -24z"/>
<path d="M5565 6583 c-11 -26 -21 -51 -23 -55 -2 -4 1 -8 6 -8 15 0 52 64 52
89 0 34 -14 24 -35 -26z"/>
<path d="M5748 6600 c-14 -11 -28 -33 -31 -49 -4 -19 -17 -36 -34 -46 -28 -15
-28 -15 -3 -13 17 2 30 13 40 35 8 18 25 41 38 53 12 11 22 25 22 30 0 14 -4
13 -32 -10z"/>
<path d="M5876 6525 c-3 -9 -6 -26 -6 -38 0 -19 2 -19 14 -7 19 19 24 52 10
57 -6 2 -14 -3 -18 -12z"/>
<path d="M5778 6473 c-23 -28 -30 -43 -19 -43 12 0 46 48 39 55 -3 3 -12 -3
-20 -12z"/>
<path d="M5624 6447 c-52 -78 -52 -102 0 -48 19 20 27 37 24 55 l-3 26 -21
-33z"/>
<path d="M6004 6435 c-17 -36 -40 -45 -62 -23 -14 14 -17 11 -26 -19 -8 -26 0
-28 56 -13 39 11 68 42 68 72 0 29 -18 21 -36 -17z"/>
<path d="M5850 6430 c-14 -10 -22 -21 -19 -25 3 -3 17 3 30 14 31 25 21 35
-11 11z"/>
<path d="M6096 6382 c-3 -5 -4 -27 -3 -50 1 -26 -5 -47 -16 -60 -18 -20 -23
-42 -8 -42 25 0 62 92 54 133 -5 27 -17 35 -27 19z"/>
<path d="M6266 6358 c5 -28 1 -44 -15 -67 -25 -34 -26 -45 -7 -60 11 -9 16 -5
26 19 17 41 25 44 49 19 18 -19 22 -20 56 -8 36 14 37 14 30 59 -4 25 -11 49
-16 55 -16 16 -29 -16 -23 -53 6 -31 5 -33 -17 -30 -13 1 -32 17 -44 34 -47
74 -45 72 -39 32z"/>
<path d="M5220 6372 c0 -6 -12 -25 -27 -44 -22 -27 -23 -29 -4 -13 27 23 45
54 37 63 -3 3 -6 0 -6 -6z"/>
<path d="M6177 6362 c-19 -21 -22 -38 -7 -47 10 -6 33 41 28 57 -2 5 -11 1
-21 -10z"/>
<path d="M5646 6274 c-9 -24 -7 -28 9 -14 17 14 20 30 6 30 -5 0 -12 -7 -15
-16z"/>
<path d="M5864 6218 l-19 -23 23 19 c21 18 27 26 19 26 -2 0 -12 -10 -23 -22z"/>
<path d="M5799 6163 c-13 -16 -12 -17 4 -4 16 13 21 21 13 21 -2 0 -10 -8 -17
-17z"/>
<path d="M6310 6139 c0 -32 13 -79 22 -79 10 0 2 55 -13 80 -7 13 -8 13 -9 -1z"/>
<path d="M6190 6137 c0 -4 20 -33 44 -65 24 -31 46 -69 49 -82 4 -25 4 -25 6
-2 0 13 -8 35 -19 49 -11 14 -18 29 -15 33 2 4 -11 22 -30 40 -19 19 -35 31
-35 27z"/>
<path d="M5455 6094 c-22 -9 -66 -20 -99 -25 -63 -11 -85 -21 -160 -74 -27
-20 -60 -35 -76 -35 -15 0 -44 -13 -65 -30 -21 -16 -44 -30 -52 -30 -39 0 -82
-33 -103 -78 -13 -26 -47 -80 -77 -121 -59 -82 -117 -197 -132 -260 -5 -23 -8
-41 -6 -41 2 0 34 32 72 71 61 63 87 98 158 211 19 31 22 32 93 33 39 0 72 -3
72 -7 0 -4 -36 -47 -80 -95 -81 -89 -100 -125 -100 -194 0 -23 -10 -51 -30
-80 -24 -35 -30 -55 -30 -97 0 -48 -4 -57 -44 -100 -24 -26 -48 -57 -55 -69
-17 -33 -13 -104 7 -143 20 -37 42 -51 42 -26 0 18 31 86 39 86 3 0 14 -18 23
-40 27 -64 42 -52 34 28 -6 63 -5 72 25 127 25 47 30 66 25 97 -5 28 -1 49 14
78 13 25 20 59 20 96 0 46 5 62 28 93 16 20 46 84 67 143 20 59 43 112 49 117
14 12 96 26 96 18 0 -4 -18 -34 -40 -68 -69 -107 -74 -158 -26 -254 l24 -47
-31 -53 c-26 -44 -36 -53 -53 -49 -18 5 -24 -3 -41 -53 -12 -32 -31 -85 -42
-118 -26 -71 -21 -116 14 -139 14 -10 27 -30 31 -51 7 -39 22 -54 34 -35 4 6
10 42 14 79 7 78 33 161 50 161 7 0 21 -16 33 -36 l21 -37 15 24 c18 28 37
144 37 227 0 68 -16 98 -49 89 -14 -3 -19 -2 -14 6 5 7 8 55 9 107 1 61 7 108
17 130 8 19 18 58 22 85 5 36 18 63 44 95 19 25 39 47 43 48 5 2 8 8 8 14 0
10 -17 8 -52 -7 -13 -5 -18 -2 -18 10 0 11 -5 15 -15 11 -8 -3 -15 -1 -15 4 0
6 5 10 10 10 6 0 10 10 8 23 -4 36 21 106 43 117 11 6 41 10 67 8 42 -3 47 -5
44 -25 -2 -13 -1 -23 2 -23 3 0 26 20 53 45 26 25 56 45 68 45 16 0 17 2 5 10
-19 12 -26 12 -75 -6z m-310 -184 c19 -1 19 -1 -4 -20 l-23 -20 33 0 c32 -1
33 -1 15 -15 -14 -10 -15 -15 -6 -15 24 0 -2 -16 -54 -34 -60 -19 -53 -19 -60
0 -3 8 -2 12 4 9 22 -14 23 28 1 46 l-22 18 38 25 c24 17 41 22 47 16 6 -6 19
-10 31 -10z"/>
<path d="M5110 5830 c-8 -5 -10 -10 -5 -10 6 0 17 5 25 10 8 5 11 10 5 10 -5
0 -17 -5 -25 -10z"/>
<path d="M5636 6084 c-34 -30 -30 -40 10 -19 16 8 36 15 44 16 13 0 13 1 0 6
-8 3 -17 9 -20 14 -3 4 -18 -4 -34 -17z"/>
<path d="M6015 6077 c-17 -42 -19 -63 -5 -72 5 -3 7 0 4 8 -3 8 2 32 11 52 8
21 13 40 10 43 -2 3 -12 -11 -20 -31z"/>
<path d="M5715 6090 c-3 -5 -1 -10 4 -10 6 0 11 5 11 10 0 6 -2 10 -4 10 -3 0
-8 -4 -11 -10z"/>
<path d="M5895 6090 c-3 -5 1 -31 10 -57 18 -51 63 -261 72 -329 3 -29 -2 -61
-17 -103 -18 -49 -22 -73 -17 -121 5 -40 2 -69 -7 -92 -13 -29 -12 -39 11
-103 42 -118 65 -128 61 -27 -3 63 -2 67 20 70 19 3 22 9 22 49 0 30 7 53 20
70 25 31 25 64 3 106 -12 21 -18 57 -19 102 -1 89 -16 171 -37 212 -9 18 -17
47 -17 66 0 19 -7 40 -16 48 -8 7 -26 34 -40 60 -26 51 -39 65 -49 49z"/>
<path d="M5783 6028 c2 -29 12 -72 21 -95 14 -39 15 -55 1 -190 -9 -82 -19
-166 -24 -188 -8 -32 -5 -53 15 -109 28 -81 31 -172 9 -255 -18 -68 -9 -90 25
-61 16 14 32 19 47 15 47 -11 46 51 -2 221 -17 61 -17 61 5 92 16 22 21 39 17
59 -3 16 0 36 7 45 17 23 13 218 -7 283 -8 28 -23 66 -35 85 -11 19 -23 51
-27 70 -8 41 -31 80 -46 80 -7 0 -9 -19 -6 -52z"/>
<path d="M5659 6003 c-49 -113 -52 -123 -45 -173 4 -26 11 -62 17 -80 13 -37
28 -29 63 34 19 36 22 55 22 151 -1 96 -3 110 -19 113 -12 3 -23 -10 -38 -45z"/>
<path d="M6147 6015 c-18 -38 -22 -65 -9 -65 9 0 37 89 30 95 -2 3 -12 -11
-21 -30z"/>
<path d="M5441 6006 c-6 -7 -9 -22 -5 -32 4 -14 3 -15 -4 -5 -13 18 -22 1 -20
-42 1 -20 -4 -42 -10 -49 -17 -21 1 -42 25 -29 39 20 74 141 42 141 -8 0 -8 5
1 15 10 12 10 15 -3 15 -8 0 -20 -6 -26 -14z"/>
<path d="M6065 5936 c7 -41 20 -87 29 -101 13 -19 16 -37 11 -59 -9 -44 -9
-72 2 -139 11 -62 32 -93 57 -84 17 7 17 7 -10 120 -8 32 -14 78 -14 102 0 34
-6 52 -29 77 -20 24 -30 48 -34 87 -4 30 -10 58 -15 63 -5 5 -3 -25 3 -66z"/>
<path d="M5512 5897 c-7 -25 -24 -55 -42 -72 -51 -48 -53 -58 -33 -136 9 -38
21 -69 25 -69 19 0 40 65 34 106 -4 33 0 55 19 96 25 54 32 102 16 112 -5 3
-14 -13 -19 -37z"/>
<path d="M4465 5895 c-33 -19 -53 -34 -45 -35 15 0 120 57 120 65 0 10 -17 4
-75 -30z"/>
<path d="M6156 5915 c4 -8 11 -15 16 -15 6 0 5 6 -2 15 -7 8 -14 15 -16 15 -2
0 -1 -7 2 -15z"/>
<path d="M6228 5842 c-21 -35 -35 -112 -20 -112 10 0 12 4 35 88 17 57 10 67
-15 24z"/>
<path d="M5338 5813 c-55 -60 -63 -82 -64 -178 -1 -49 -4 -106 -8 -125 -7 -34
-6 -33 22 15 17 28 37 57 46 64 10 9 16 30 16 60 0 25 7 75 14 111 8 36 11 68
7 73 -4 4 -19 -5 -33 -20z"/>
<path d="M5686 5749 c-16 -17 -37 -55 -47 -85 -19 -58 -14 -99 21 -157 15 -24
17 -34 7 -51 -6 -12 -12 -72 -12 -146 -1 -69 -5 -151 -9 -182 -8 -56 -8 -58
14 -58 31 0 75 34 90 69 9 22 9 42 2 77 -7 33 -7 63 1 100 10 47 8 62 -13 128
-22 70 -22 79 -11 148 7 40 14 98 14 128 2 66 -14 74 -57 29z"/>
<path d="M4225 5725 c-22 -19 -35 -34 -30 -34 6 -1 28 15 50 34 22 19 36 34
30 34 -5 1 -28 -15 -50 -34z"/>
<path d="M5355 5553 c-38 -42 -73 -81 -77 -88 -5 -7 -1 -33 8 -56 12 -34 14
-65 9 -134 -5 -72 -3 -94 9 -110 28 -37 20 -77 -24 -120 -39 -38 -53 -75 -27
-75 17 0 97 51 119 76 33 38 50 96 48 169 0 38 -2 106 -3 150 -1 44 5 112 13
152 9 47 11 78 4 91 -8 18 -16 13 -79 -55z"/>
<path d="M5507 5593 c-36 -48 -43 -77 -29 -130 16 -59 15 -95 -4 -143 -15 -38
-15 -42 6 -93 l23 -54 -28 -47 c-30 -52 -29 -92 4 -135 l18 -24 18 26 c37 57
85 206 85 265 0 71 -8 85 -43 76 -29 -7 -34 4 -18 34 13 25 18 262 6 262 -5
-1 -23 -17 -38 -37z"/>
<path d="M6280 5275 c0 -8 4 -15 10 -15 5 0 7 7 4 15 -4 8 -8 15 -10 15 -2 0
-4 -7 -4 -15z"/>
<path d="M6041 5200 c0 -8 4 -22 9 -30 12 -18 12 -2 0 25 -6 13 -9 15 -9 5z"/>
<path d="M6188 5147 c-17 -14 -33 -51 -18 -42 6 3 10 14 11 23 0 14 2 13 9 -3
7 -16 9 -17 9 -3 1 9 6 18 13 20 8 3 9 6 1 11 -5 3 -17 1 -25 -6z"/>
<path d="M6113 5075 c-13 -10 -13 -13 -1 -23 12 -9 19 -7 36 11 l21 23 -20 0
c-12 0 -28 -5 -36 -11z"/>
<path d="M5786 4996 c-44 -41 -50 -72 -11 -54 14 6 25 18 25 26 0 9 10 26 22
39 34 36 4 27 -36 -11z"/>
<path d="M5851 4994 c0 -11 3 -14 6 -6 3 7 2 16 -1 19 -3 4 -6 -2 -5 -13z"/>
<path d="M5710 4979 c-14 -5 -34 -24 -44 -42 -11 -17 -28 -43 -40 -57 -11 -14
1 -5 26 19 49 46 68 50 48 9 -21 -39 14 0 39 45 22 39 17 43 -29 26z"/>
<path d="M3993 4899 c-1 -42 -5 -56 -23 -69 -20 -15 -20 -18 -6 -23 12 -5 22
3 36 26 23 37 26 76 7 101 -11 16 -13 11 -14 -35z"/>
<path d="M4425 4910 c-3 -5 -2 -10 4 -10 5 0 13 5 16 10 3 6 2 10 -4 10 -5 0
-13 -4 -16 -10z"/>
<path d="M5427 4884 c-40 -43 -41 -54 -3 -28 31 19 45 12 25 -12 -10 -12 -10
-18 -3 -21 7 -2 10 -20 8 -43 -2 -27 1 -40 9 -40 8 0 7 -4 -3 -11 -12 -8 -12
-12 -2 -16 10 -4 8 -11 -8 -28 l-22 -23 39 1 c44 1 96 33 162 101 24 25 57 48
73 51 15 4 39 21 53 39 29 38 32 51 10 42 -9 -3 -15 0 -15 10 0 10 -16 -1 -43
-28 -42 -44 -197 -151 -206 -142 -2 2 6 16 20 31 22 25 22 26 2 9 -44 -36 -25
8 22 54 25 24 45 47 45 50 0 6 -63 29 -101 37 -21 4 -33 -3 -62 -33z m83 -4
c0 -11 -4 -20 -9 -20 -5 0 -7 9 -4 20 3 11 7 20 9 20 2 0 4 -9 4 -20z m30 -15
c0 -8 -4 -15 -10 -15 -5 0 -7 7 -4 15 4 8 8 15 10 15 2 0 4 -7 4 -15z"/>
<path d="M3771 4894 c0 -11 3 -14 6 -6 3 7 2 16 -1 19 -3 4 -6 -2 -5 -13z"/>
<path d="M3746 4839 c-18 -30 -18 -30 3 -17 23 14 34 35 22 42 -4 3 -15 -9
-25 -25z"/>
<path d="M4343 4835 c-33 -29 -20 -33 20 -6 16 10 24 21 19 25 -6 3 -23 -5
-39 -19z"/>
<path d="M5759 4823 l-24 -26 33 23 c33 25 38 30 24 30 -5 0 -19 -12 -33 -27z"/>
<path d="M4743 4814 c-3 -9 4 -36 16 -60 25 -53 26 -58 5 -50 -14 5 -16 1 -10
-26 4 -18 13 -39 21 -48 13 -13 15 -11 15 13 0 20 4 25 16 20 13 -5 15 -2 9
18 -4 13 -14 31 -21 40 -8 9 -19 30 -24 47 l-9 32 36 -15 c41 -17 43 -18 43
-7 0 9 -66 52 -80 52 -6 0 -13 -7 -17 -16z"/>
<path d="M5302 4801 c-28 -10 -60 -25 -70 -34 -9 -9 -39 -21 -65 -27 -54 -12
-73 -5 -124 43 -28 26 -37 29 -75 25 -24 -3 -56 -12 -73 -19 -29 -12 -29 -13
-7 -17 13 -2 29 2 37 8 9 7 27 8 52 4 21 -5 40 -8 43 -9 9 0 50 -45 50 -54 0
-5 8 -7 18 -5 9 3 28 1 42 -5 l25 -10 -25 -1 c-16 0 -21 -3 -13 -8 17 -11 84
-2 77 9 -13 22 17 6 39 -21 25 -29 57 -40 57 -20 0 6 -7 10 -15 10 -17 0 -35
38 -28 57 6 15 72 57 79 50 3 -2 -11 -15 -30 -27 -35 -21 -47 -40 -26 -40 15
0 93 50 107 69 15 19 17 34 3 26 -5 -3 -10 -1 -10 4 0 14 -5 14 -68 -8z"/>
<path d="M4576 4801 c-4 -5 -2 -12 3 -15 5 -4 12 -2 15 3 4 5 2 12 -3 15 -5 4
-12 2 -15 -3z"/>
<path d="M5675 4769 c-34 -21 -29 -25 10 -7 14 6 25 15 25 20 0 10 1 10 -35
-13z"/>
<path d="M4793 4757 c4 -10 7 -23 7 -28 0 -5 5 -9 10 -9 16 0 12 26 -7 41 -15
12 -16 12 -10 -4z"/>
<path d="M5680 4726 c-141 -71 -203 -107 -240 -141 -19 -18 -45 -38 -57 -44
-13 -6 -27 -20 -33 -31 -10 -19 34 5 145 79 17 11 75 47 130 81 93 57 157 100
145 99 -3 0 -43 -19 -90 -43z"/>
<path d="M4940 4734 c-23 -13 -24 -14 -4 -14 12 0 27 7 34 15 15 18 4 18 -30
-1z"/>
<path d="M4410 4715 c0 -8 5 -15 10 -15 6 0 10 7 10 15 0 8 -4 15 -10 15 -5 0
-10 -7 -10 -15z"/>
<path d="M4485 4720 c-4 -6 5 -10 19 -10 14 0 26 5 26 10 0 6 -9 10 -19 10
-11 0 -23 -4 -26 -10z"/>
<path d="M4985 4710 c-4 -6 -9 -32 -11 -57 -5 -56 -28 -95 -49 -87 -10 4 -15
0 -15 -16 0 -11 5 -18 10 -15 19 12 30 -5 19 -32 -18 -48 0 -36 23 16 13 28
26 51 30 51 9 0 -1 -60 -12 -75 -19 -27 -16 -51 6 -62 23 -11 24 -9 25 25 l1
37 13 -30 c8 -16 11 -40 8 -52 -4 -18 -1 -22 16 -20 12 1 21 7 21 13 0 7 8 15
17 18 12 5 14 9 5 18 -9 9 -6 18 14 39 15 16 23 32 19 39 -5 9 -15 4 -31 -14
-13 -14 -24 -30 -24 -36 0 -21 -17 -9 -33 25 -21 44 -22 60 -1 23 19 -35 38
-37 30 -3 -5 18 -2 25 9 25 8 0 15 9 15 19 0 11 2 25 3 33 2 7 2 10 0 6 -3 -5
-12 -8 -20 -8 -11 0 -14 6 -10 21 4 17 3 19 -6 10 -20 -20 -26 -12 -20 25 5
30 3 36 -16 41 -17 4 -19 8 -10 19 9 11 8 14 -4 14 -9 0 -19 -5 -22 -10z m75
-151 c0 -6 -4 -7 -10 -4 -5 3 -10 11 -10 16 0 6 5 7 10 4 6 -3 10 -11 10 -16z"/>
<path d="M5375 4710 c-3 -6 1 -7 9 -4 18 7 21 14 7 14 -6 0 -13 -4 -16 -10z"/>
<path d="M4845 4690 c3 -5 8 -10 11 -10 2 0 4 5 4 10 0 6 -5 10 -11 10 -5 0
-7 -4 -4 -10z"/>
<path d="M5400 4690 c0 -5 5 -10 10 -10 6 0 10 5 10 10 0 6 -4 10 -10 10 -5 0
-10 -4 -10 -10z"/>
<path d="M4390 4675 c0 -8 5 -15 10 -15 6 0 10 7 10 15 0 8 -4 15 -10 15 -5 0
-10 -7 -10 -15z"/>
<path d="M4490 4665 c0 -30 3 -30 30 -8 27 23 25 33 -5 33 -20 0 -25 -5 -25
-25z"/>
<path d="M4350 4670 c0 -5 5 -10 10 -10 6 0 10 5 10 10 0 6 -4 10 -10 10 -5 0
-10 -4 -10 -10z"/>
<path d="M4443 4658 c-23 -37 -31 -58 -22 -63 16 -10 27 4 31 40 4 38 3 41 -9
23z"/>
<path d="M5111 4661 c-8 -6 -9 -11 -3 -15 6 -3 14 -1 17 5 9 14 2 20 -14 10z"/>
<path d="M5368 4663 c7 -3 16 -2 19 1 4 3 -2 6 -13 5 -11 0 -14 -3 -6 -6z"/>
<path d="M4830 4640 c0 -5 5 -10 10 -10 6 0 10 5 10 10 0 6 -4 10 -10 10 -5 0
-10 -4 -10 -10z"/>
<path d="M4877 4643 c-4 -3 -7 -18 -7 -33 0 -14 -4 -30 -9 -35 -13 -14 -18
-69 -6 -75 6 -3 17 24 25 59 9 36 21 66 28 69 7 2 10 8 6 13 -6 11 -28 12 -37
2z"/>
<path d="M5170 4633 c0 -12 -3 -28 -6 -37 -9 -23 9 -19 24 5 12 18 11 24 -2
37 -15 15 -16 14 -16 -5z"/>
<path d="M4744 4609 c5 -24 3 -30 -8 -26 -11 5 -15 -4 -14 -36 0 -31 7 -48 25
-65 24 -22 25 -24 7 -43 -27 -30 -28 -52 -2 -38 18 10 20 9 16 -9 -9 -33 18
-15 36 23 9 19 21 37 27 40 6 4 6 12 1 18 -4 7 -19 40 -32 75 -14 34 -28 62
-32 62 -5 0 -8 7 -8 15 0 8 -5 15 -11 15 -8 0 -9 -11 -5 -31z"/>
<path d="M5350 4590 c-25 -22 -41 -40 -37 -40 4 0 2 -10 -4 -22 -7 -13 11 1
40 30 28 29 51 57 51 62 0 14 0 14 -50 -30z"/>
<path d="M5240 4604 c0 -7 -7 -17 -16 -22 -14 -8 -14 -10 1 -25 15 -16 14 -16
-17 -10 -30 6 -32 5 -19 -10 12 -15 11 -17 -3 -17 -9 0 -16 -4 -16 -9 0 -5 -3
-18 -7 -28 -6 -16 -5 -16 10 -5 9 8 21 11 27 7 6 -3 28 8 51 25 28 23 38 37
34 50 -3 10 -1 21 5 25 21 13 10 32 -20 32 -18 0 -30 -6 -30 -13z"/>
<path d="M4806 4591 c-4 -7 -5 -15 -2 -18 9 -9 19 4 14 18 -4 11 -6 11 -12 0z"/>
<path d="M4680 4555 c0 -8 5 -15 10 -15 6 0 10 7 10 15 0 8 -4 15 -10 15 -5 0
-10 -7 -10 -15z"/>
<path d="M5120 4557 c0 -19 10 -27 26 -20 11 4 12 9 3 19 -15 18 -29 18 -29 1z"/>
<path d="M5290 4459 c-19 -17 -26 -26 -15 -21 18 9 64 52 54 52 -2 0 -20 -14
-39 -31z"/>
<path d="M5212 4438 c-40 -42 -34 -48 9 -9 18 17 30 33 27 36 -3 4 -20 -9 -36
-27z"/>
<path d="M6494 4109 c-33 -17 -73 -44 -90 -60 -39 -38 -167 -210 -216 -290
-20 -33 -48 -72 -62 -86 -46 -46 -144 -255 -201 -430 -44 -133 -58 -195 -71
-298 -19 -158 -14 -197 35 -272 94 -146 249 -206 371 -145 60 31 182 138 230
202 21 28 60 94 86 145 40 80 47 102 48 156 1 79 -15 86 -48 22 -47 -94 -243
-307 -339 -370 -56 -37 -138 -57 -182 -45 -38 10 -65 61 -65 122 0 69 25 222
42 255 9 17 23 55 33 85 65 208 145 386 258 575 85 143 108 173 192 255 74 71
129 95 164 73 41 -27 -2 -177 -90 -312 -27 -41 -46 -78 -43 -83 16 -26 114 12
177 71 95 87 101 268 12 384 -66 86 -139 100 -241 46z m-172 -377 c-33 -48
-87 -139 -121 -202 -61 -112 -74 -119 -24 -12 24 52 150 249 181 285 32 36 21
14 -36 -71z"/>
<path d="M5124 4094 c-38 -18 -99 -83 -224 -234 -183 -221 -352 -468 -481
-703 -28 -50 -48 -83 -44 -72 4 11 36 106 70 210 35 105 87 242 115 305 28 63
60 137 71 164 11 27 36 73 55 102 58 87 63 136 18 175 -29 24 -47 28 -76 15
-41 -17 -117 -130 -163 -241 -23 -55 -57 -136 -76 -180 -18 -44 -41 -91 -50
-105 -10 -14 -39 -97 -64 -185 -54 -185 -74 -249 -103 -324 -41 -103 -79 -419
-58 -476 8 -24 -28 -49 -87 -60 -30 -6 -48 -2 -94 21 -47 24 -75 51 -160 154
-110 131 -263 351 -263 375 0 26 4 29 68 51 88 31 182 95 277 189 77 77 180
192 218 245 17 24 17 24 1 -10 -19 -40 -88 -133 -153 -205 l-45 -50 48 45
c114 106 198 214 253 325 52 104 56 115 60 202 6 109 2 131 -34 174 -35 41
-85 62 -126 53 -36 -7 -259 -219 -284 -269 -9 -16 -35 -52 -58 -80 -67 -80
-204 -273 -219 -310 -24 -55 -27 -41 -5 22 22 66 18 64 -29 -15 -37 -63 -37
-63 13 63 71 180 168 365 227 433 32 37 37 86 13 131 -32 63 -59 48 -137 -76
-37 -59 -139 -268 -164 -336 -7 -20 -24 -52 -38 -70 -13 -17 -33 -61 -44 -97
-11 -36 -30 -90 -42 -120 -12 -30 -28 -79 -36 -108 -8 -30 -25 -73 -38 -95
-14 -23 -32 -71 -40 -107 -8 -36 -29 -127 -47 -202 -27 -118 -30 -141 -19
-167 17 -42 59 -55 110 -35 34 14 41 23 51 58 38 145 96 316 107 316 4 0 24
-44 46 -97 21 -54 51 -118 67 -143 15 -25 42 -73 59 -107 41 -83 215 -274 276
-303 67 -33 118 -22 194 40 32 28 76 70 96 95 31 36 44 45 71 45 26 0 36 6 48
30 8 16 15 38 15 48 0 49 54 221 96 304 63 126 177 329 229 408 23 36 54 83
68 105 76 117 212 312 249 357 97 116 195 211 212 205 35 -14 17 -119 -68
-385 -154 -483 -354 -844 -479 -867 -58 -11 -129 41 -163 120 -11 26 -13 27
-14 8 0 -40 39 -128 72 -160 43 -41 76 -53 150 -53 109 0 182 54 320 236 81
107 114 166 124 223 4 20 27 74 52 121 46 88 112 273 136 382 23 110 27 368 6
432 -13 41 -53 76 -84 76 -11 0 -35 -7 -52 -16z m-1049 -252 c-25 -179 -192
-426 -400 -593 -50 -40 -205 -111 -205 -94 0 2 17 36 38 77 55 106 136 233
186 292 23 28 61 76 83 106 61 84 223 261 247 270 12 4 29 3 40 -2 15 -8 17
-17 11 -56z m347 -273 c-25 -55 -48 -96 -50 -91 -3 10 84 192 92 192 3 0 -16
-45 -42 -101z m-82 -303 c0 -8 -9 -24 -20 -37 l-20 -24 17 38 c18 40 23 45 23
23z m631 -149 c-10 -9 -11 -8 -5 6 3 10 9 15 12 12 3 -3 0 -11 -7 -18z m-210
-275 c-5 -10 -18 -25 -27 -33 -16 -12 -17 -12 -9 1 10 18 37 50 42 50 2 0 -1
-8 -6 -18z"/>
<path d="M8200 4090 c-97 -26 -164 -68 -260 -161 -64 -62 -79 -82 -84 -115 -4
-23 -14 -54 -22 -70 -34 -64 -13 -217 50 -367 116 -276 161 -403 160 -448 -4
-120 -153 -272 -280 -287 -65 -7 -87 3 -114 50 -43 77 -22 216 51 329 34 54
35 82 1 87 -36 5 -154 -119 -194 -205 -40 -84 -50 -190 -24 -242 10 -18 21
-29 28 -25 6 4 8 3 5 -3 -9 -15 43 -59 83 -71 137 -41 312 -10 442 78 28 19
50 38 47 42 -2 4 10 22 28 40 39 41 90 141 99 194 10 65 -12 142 -77 270 -68
132 -104 219 -89 209 5 -3 -4 26 -20 64 -26 61 -30 82 -30 164 0 92 1 95 38
153 79 121 206 214 303 222 65 5 99 -9 99 -41 0 -18 2 -19 11 -7 7 11 8 3 4
-30 -9 -58 -61 -166 -93 -191 -26 -20 -92 -113 -92 -129 0 -19 21 -20 55 -4
45 21 209 194 235 249 38 78 17 149 -58 196 -94 59 -199 76 -302 49z m-684
-1236 c-8 -21 -15 -34 -15 -28 -1 15 20 76 25 71 2 -2 -2 -21 -10 -43z m-13
-129 c3 -46 1 -72 -3 -60 -8 19 -14 153 -6 144 2 -2 6 -40 9 -84z"/>
<path d="M2002 4063 c-37 -15 -173 -260 -226 -409 -12 -33 -34 -76 -48 -95
-15 -19 -51 -109 -82 -202 -31 -92 -69 -200 -85 -240 -16 -40 -38 -117 -51
-172 -12 -55 -30 -139 -41 -188 -21 -93 -17 -116 21 -137 29 -15 75 -12 99 8
14 11 36 67 67 167 25 83 60 180 76 218 l31 67 54 0 c63 0 141 29 228 85 33
22 83 50 110 64 80 40 264 235 317 335 65 123 80 164 89 253 10 99 -5 160 -52
209 -28 29 -40 34 -81 34 -43 0 -53 -5 -104 -51 -132 -119 -261 -275 -412
-497 -103 -153 -105 -155 -81 -92 113 298 162 409 215 487 26 39 32 95 12 138
-11 24 -28 30 -56 18z m386 -165 c27 -27 5 -134 -50 -243 -103 -204 -335 -439
-469 -475 -22 -6 -47 -14 -54 -17 -22 -8 99 216 168 312 97 133 275 353 318
391 24 21 59 43 70 44 3 0 10 -5 17 -12z m-841 -940 c-14 -40 -28 -82 -31 -93
-3 -11 -2 0 1 25 6 49 42 154 50 146 3 -2 -6 -37 -20 -78z"/>
<path d="M2883 4038 c-6 -7 -18 -30 -27 -50 -20 -42 -54 -58 -125 -58 -66 0
-90 -9 -97 -35 -12 -48 25 -82 98 -89 29 -3 42 -9 40 -18 -1 -7 -32 -98 -68
-203 -36 -104 -73 -212 -82 -240 l-17 -49 -64 -11 c-84 -13 -99 -34 -55 -74
17 -16 36 -30 42 -32 14 -5 -111 -363 -169 -483 -30 -60 -20 -109 32 -158 74
-70 183 -76 292 -15 119 67 297 237 297 284 0 29 -40 12 -235 -104 -33 -20
-96 -51 -140 -69 l-80 -33 -3 32 c-2 20 15 78 44 152 41 107 137 371 151 418
3 9 17 20 32 23 14 3 60 14 101 24 41 10 98 22 125 26 28 4 59 13 70 20 11 8
31 14 45 14 30 0 69 25 58 36 -8 7 -312 -12 -356 -23 -21 -5 -22 -3 -16 23 7
28 94 266 152 412 16 40 33 77 38 81 5 5 45 16 89 25 44 9 98 21 120 26 318
77 365 91 379 112 5 9 8 19 6 21 -3 3 -34 1 -70 -4 -36 -5 -157 -18 -270 -28
l-205 -20 -35 34 c-40 39 -81 53 -97 33z m-174 -557 c-6 -18 -13 -30 -15 -28
-2 2 1 18 7 36 6 18 13 30 15 28 2 -2 -1 -18 -7 -36z"/>
<path d="M7200 4021 c-5 -11 -10 -26 -10 -34 0 -32 -40 -52 -122 -58 -85 -6
-100 -15 -96 -59 4 -32 60 -70 104 -70 21 0 34 -5 34 -12 0 -11 -65 -202 -129
-380 -12 -32 -21 -64 -21 -71 0 -33 -28 -52 -87 -57 -54 -5 -58 -7 -61 -31 -3
-25 27 -60 59 -71 5 -2 4 -19 -5 -43 -42 -120 -109 -303 -117 -320 -70 -164
-75 -216 -29 -269 61 -69 189 -86 287 -37 129 64 340 265 318 301 -10 17 -29
11 -91 -26 -54 -33 -94 -55 -209 -119 -62 -34 -154 -66 -160 -55 -9 15 14 95
77 265 33 88 71 195 85 238 26 85 50 117 86 117 32 0 193 39 252 61 28 11 62
19 76 19 25 0 58 25 47 35 -2 2 -78 -2 -169 -10 -226 -20 -212 -21 -204 16 4
17 18 57 32 88 14 31 45 114 69 185 25 70 55 149 67 174 l22 46 85 18 c47 10
121 25 165 34 44 9 107 25 140 36 33 10 85 26 115 34 30 9 63 20 73 25 30 17
9 28 -41 23 -26 -2 -121 -11 -212 -19 -91 -8 -193 -18 -227 -21 -55 -5 -63 -3
-73 15 -24 46 -111 67 -130 32z"/>
<path d="M5800 3971 c-34 -37 -38 -39 -135 -50 -124 -15 -162 -27 -170 -52
-13 -39 20 -59 94 -59 36 0 80 4 98 9 17 5 33 8 35 6 2 -2 -69 -149 -157 -327
-201 -401 -289 -618 -288 -701 1 -70 -1 -72 -143 -86 -59 -6 -103 -16 -112
-24 -20 -20 -6 -56 24 -63 74 -19 460 45 559 92 19 9 42 13 51 10 19 -7 54 10
54 27 0 9 -36 11 -146 9 l-147 -4 7 43 c4 24 22 79 41 123 19 44 35 88 35 98
0 10 4 18 9 18 5 0 12 12 16 27 7 27 269 574 304 635 11 18 35 62 54 97 l35
64 93 28 c52 16 104 29 116 29 32 0 53 10 53 25 0 10 -28 13 -110 14 -96 1
-116 5 -157 26 -25 14 -53 25 -62 25 -9 0 -32 -18 -51 -39z m-49 -318 c-8 -15
-10 -15 -11 -2 0 17 10 32 18 25 2 -3 -1 -13 -7 -23z"/>
<path d="M5960 2204 c-125 -120 -419 -531 -570 -794 -24 -41 -57 -97 -75 -125
-17 -27 -58 -92 -89 -142 -32 -51 -61 -93 -66 -93 -14 0 -18 38 -9 77 25 108
30 319 15 628 -9 194 -11 314 -5 319 20 21 9 75 -22 111 -37 42 -71 46 -87 10
-8 -17 -24 -28 -56 -36 -25 -6 -50 -17 -56 -24 -7 -8 -4 -85 10 -250 17 -210
19 -269 10 -502 -5 -146 -12 -268 -14 -272 -3 -4 -14 -72 -26 -152 -25 -177
-43 -251 -75 -306 -35 -59 -33 -81 11 -99 46 -19 106 -10 138 19 21 19 196
318 196 334 0 5 125 227 213 378 86 146 256 398 381 564 39 52 86 115 105 140
19 25 67 80 107 122 74 77 79 85 68 126 -11 42 -34 35 -104 -33z m-975 -1241
c-4 -30 -9 -52 -12 -50 -2 3 -1 36 3 74 4 37 10 60 12 49 2 -10 1 -43 -3 -73z
m-18 -100 c-3 -10 -5 -4 -5 12 0 17 2 24 5 18 2 -7 2 -21 0 -30z"/>
<path d="M3806 2195 l-42 -45 -249 -25 c-138 -13 -266 -26 -285 -27 -31 -3
-35 -7 -38 -34 -4 -40 29 -80 76 -94 57 -15 148 -12 277 10 65 12 120 19 122
16 3 -2 -12 -51 -32 -108 -20 -57 -63 -179 -95 -273 -32 -93 -85 -242 -118
-330 -138 -370 -164 -477 -144 -581 14 -67 34 -94 73 -94 42 0 75 46 88 127
20 114 97 380 151 523 29 74 72 194 97 265 61 179 162 432 189 476 26 42 35
44 224 55 l115 7 -15 -21 c-176 -249 -236 -362 -331 -622 -92 -252 -121 -363
-123 -465 -1 -72 2 -87 32 -147 33 -67 73 -108 140 -142 49 -25 83 -13 140 49
47 51 200 263 252 350 54 89 152 219 147 195 -34 -163 -37 -189 -67 -495 -13
-126 -7 -154 42 -227 60 -88 171 -122 243 -76 39 27 90 106 111 174 16 55 17
64 4 84 -7 12 -25 -2 -88 -68 -47 -49 -87 -82 -99 -82 -43 0 -53 125 -32 377
13 161 30 239 68 331 17 39 44 104 61 143 58 137 111 244 126 252 8 4 23 26
35 48 19 38 19 42 4 66 -9 14 -37 34 -62 45 -45 20 -46 20 -72 0 -28 -21 -90
-105 -121 -163 -11 -20 -43 -71 -72 -112 -29 -42 -72 -105 -96 -139 -24 -35
-72 -103 -108 -153 -36 -49 -86 -121 -111 -160 -51 -76 -242 -275 -265 -275
-41 0 -48 56 -24 187 8 43 20 110 25 150 6 40 23 109 37 155 27 87 95 251 101
244 2 -2 -11 -41 -28 -87 -25 -68 -98 -295 -99 -307 0 -2 4 -1 9 2 5 3 12 21
15 41 20 106 211 515 308 659 50 74 151 177 196 200 18 9 55 20 81 23 43 5 50
3 65 -18 9 -13 16 -35 16 -49 0 -37 36 -90 61 -90 30 0 79 53 79 86 0 60 -169
182 -280 202 -58 11 -107 0 -168 -38 l-49 -30 -156 0 c-147 0 -157 1 -167 21
-16 28 -69 59 -104 59 -22 0 -40 -11 -70 -45z m619 -1350 l-14 -70 5 60 c5 68
17 117 21 95 2 -8 -3 -46 -12 -85z"/>
<path d="M6530 2109 c-161 -9 -434 -44 -485 -62 -43 -15 -57 -45 -34 -73 11
-13 31 -15 126 -9 l112 7 -25 -63 c-13 -35 -52 -145 -85 -243 -33 -99 -80
-218 -105 -266 -24 -48 -64 -148 -88 -221 -24 -74 -54 -156 -66 -184 -42 -96
-80 -219 -80 -260 0 -64 -37 -86 -169 -99 -68 -6 -77 -15 -57 -54 12 -23 26
-33 52 -38 40 -7 191 16 307 48 133 36 222 56 279 63 58 7 84 23 76 47 -4 10
-39 12 -151 9 -111 -2 -147 0 -147 9 0 25 144 448 208 609 35 91 84 216 108
278 23 61 56 138 72 170 40 78 102 218 102 230 0 5 26 16 58 23 79 17 144 49
140 68 -4 20 -3 20 -148 11z"/>
<path d="M3961 1134 c0 -11 3 -14 6 -6 3 7 2 16 -1 19 -3 4 -6 -2 -5 -13z"/>
</g>
</svg>
